<svg xmlns="http://www.w3.org/2000/svg" viewBox="0 0 128 128">
	<path fill="#F7DF1E" d="M10 10h108v108H10z"/>
	<path fill="#191919" d="M38.3 100.2l8.3-5c1.6 2.8 3 5.2 6.5 5.2 3.3 0 5.4-1.3 5.4-6.3V60.3h10.2v33.9c0 10.6-6.2 15.4-15.3 15.4-8.2 0-12.9-4.2-15.1-9.4m35.9-1.1 8.3-4.8c2.2 3.6 5 6.3 10 6.3 4.2 0 6.9-2.1 6.9-5 0-3.5-2.8-4.7-7.4-6.8l-2.5-1.1c-7.4-3.1-12.3-7.1-12.3-15.4 0-7.7 5.8-13.5 15-13.5 6.5 0 11.2 2.3 14.6 8.2l-8 5.1c-1.8-3.1-3.7-4.4-6.6-4.4-3 0-4.9 1.9-4.9 4.4 0 3.1 1.9 4.3 6.3 6.2l2.5 1.1c8.7 3.7 13.6 7.5 13.6 16 0 9.2-7.2 14.2-16.9 14.2-9.5 0-15.6-4.5-18.6-10.5"/>
</svg>
