<svg xmlns="http://www.w3.org/2000/svg" viewBox="0 0 128 128">
	<path fill="#38BDF8" d="M64 32c-14.2 0-23.1 7.1-26.7 21.3 5.3-7.1 11.5-9.8 18.7-8 4.1 1 7.1 4 10.3 7.3 5.2 5.3 11.3 11.4 24.4 11.4 14.2 0 23.1-7.1 26.7-21.3-5.3 7.1-11.5 9.8-18.7 8-4.1-1-7.1-4-10.3-7.3C83.2 38.1 77.1 32 64 32M37.3 64c-14.2 0-23.1 7.1-26.7 21.3 5.3-7.1 11.5-9.8 18.7-8 4.1 1 7.1 4 10.3 7.3C44.8 89.9 50.9 96 64 96c14.2 0 23.1-7.1 26.7-21.3-5.3 7.1-11.5 9.8-18.7 8-4.1-1-7.1-4-10.3-7.3C56.5 70.1 50.4 64 37.3 64"/>
</svg>
